<svg width="14" height="14" viewBox="0 0 14 14" fill="none" xmlns="http://www.w3.org/2000/svg">
<path d="M10.4525 8.35337C10.3014 8.49979 10.232 8.71154 10.2664 8.91921L10.785 11.7892C10.8287 12.0325 10.726 12.2786 10.5225 12.4192C10.323 12.565 10.0575 12.5825 9.83996 12.4659L7.25638 11.1184C7.16654 11.0705 7.06679 11.0449 6.96471 11.042H6.80663C6.75179 11.0501 6.69813 11.0676 6.64913 11.0945L4.06496 12.4484C3.93721 12.5125 3.79254 12.5353 3.65079 12.5125C3.30546 12.4472 3.07504 12.1182 3.13163 11.7711L3.65079 8.90112C3.68521 8.69171 3.61579 8.47879 3.46471 8.33004L1.35829 6.28837C1.18213 6.11746 1.12088 5.86079 1.20138 5.62921C1.27954 5.39821 1.47904 5.22962 1.71996 5.19171L4.61913 4.77112C4.83963 4.74837 5.03329 4.61421 5.13246 4.41587L6.40996 1.79671C6.44029 1.73837 6.47938 1.68471 6.52663 1.63921L6.57913 1.59837C6.60654 1.56804 6.63804 1.54296 6.67304 1.52254L6.73663 1.49921L6.83579 1.45837H7.08138C7.30071 1.48112 7.49379 1.61237 7.59471 1.80837L8.88913 4.41587C8.98246 4.60662 9.16388 4.73904 9.37329 4.77112L12.2725 5.19171C12.5175 5.22671 12.7222 5.39587 12.8033 5.62921C12.8797 5.86312 12.8138 6.11979 12.6341 6.28837L10.4525 8.35337Z" fill="url(#paint0_linear_136_89)"/>
<defs>
<linearGradient id="paint0_linear_136_89" x1="12.8346" y1="12.5424" x2="-0.933959" y2="8.33999" gradientUnits="userSpaceOnUse">
<stop stop-color="#FB9400"/>
<stop offset="1" stop-color="#FFAB38"/>
</linearGradient>
</defs>
</svg>
