<svg width="20" height="20" viewBox="0 0 20 20" fill="none" xmlns="http://www.w3.org/2000/svg">
<path d="M14.1667 4.16663C15.0833 4.16663 15.8337 4.91695 15.8337 5.83362V8.04163C15.8337 8.41663 15.7081 8.78362 15.4665 9.08362L12.5671 12.7086C12.2504 13.1003 11.7746 13.3336 11.2663 13.3336H8.33366C8.33348 14.7167 7.21673 15.8334 5.83366 15.8336C4.45043 15.8336 3.33383 14.7168 3.33366 13.3336H2.49967C2.04149 13.3334 1.66666 12.9579 1.66666 12.4996V10.8336C1.66666 8.99206 3.15815 7.49981 4.99967 7.49963H7.49967C7.95801 7.49963 8.33366 7.87528 8.33366 8.33362V11.6666H11.2663L14.1667 8.04163V5.83362H12.4997C12.0415 5.83344 11.6667 5.45786 11.6667 4.99963C11.6668 4.54156 12.0416 4.1668 12.4997 4.16663H14.1667ZM15.8337 10.8336C17.2168 10.8338 18.3337 11.9504 18.3337 13.3336C18.3335 14.7167 17.2167 15.8334 15.8337 15.8336C14.4504 15.8336 13.3338 14.7168 13.3337 13.3336C13.3337 11.9503 14.4503 10.8336 15.8337 10.8336ZM4.99967 13.3336C4.99985 13.7918 5.37543 14.1666 5.83366 14.1666C6.29173 14.1664 6.66649 13.7917 6.66666 13.3336H4.99967ZM15.8337 12.4996C15.3753 12.4996 14.9997 12.8753 14.9997 13.3336C14.9998 13.7918 15.3754 14.1666 15.8337 14.1666C16.2917 14.1664 16.6665 13.7917 16.6667 13.3336C16.6667 12.8754 16.2918 12.4998 15.8337 12.4996ZM7.49967 4.99963C7.95801 4.99963 8.33366 5.37528 8.33366 5.83362C8.33348 6.2918 7.9579 6.66663 7.49967 6.66663H4.99967C4.54159 6.66645 4.16684 6.2917 4.16666 5.83362C4.16666 5.37539 4.54149 4.99981 4.99967 4.99963H7.49967Z" fill="url(#paint0_linear_136_99)"/>
<defs>
<linearGradient id="paint0_linear_136_99" x1="18.3337" y1="15.8336" x2="-0.0174639" y2="8.23263" gradientUnits="userSpaceOnUse">
<stop stop-color="#1BAC4B"/>
<stop offset="1" stop-color="#46D375"/>
</linearGradient>
</defs>
</svg>
