<svg width="20" height="20" viewBox="0 0 20 20" fill="none" xmlns="http://www.w3.org/2000/svg">
<path d="M6.28029 0.500645C6.9102 0.519667 7.52043 0.62975 8.11135 0.830723H8.16994C8.20969 0.849605 8.23978 0.870411 8.25978 0.889317C8.48072 0.960295 8.68972 1.04109 8.88967 1.15104L9.26955 1.32096C9.41955 1.40096 9.60021 1.55 9.70021 1.611C9.80009 1.66992 9.91011 1.73058 10 1.79947C11.1109 0.950629 12.4598 0.490739 13.8496 0.500645C14.4806 0.500645 15.111 0.589704 15.71 0.790684C19.4009 1.99067 20.7311 6.04075 19.6201 9.58072C18.9902 11.3895 17.9601 13.0404 16.6113 14.3893C14.6803 16.2593 12.5613 17.9203 10.2803 19.3503L10.0303 19.5006L9.76955 19.3395C7.48075 17.9196 5.35023 16.2594 3.40139 14.3796C2.06139 13.0306 1.02967 11.3897 0.389667 9.58072C-0.74023 6.04077 0.590371 1.99116 4.32131 0.770176C4.61123 0.670212 4.91006 0.600189 5.20998 0.561192H5.3301C5.61106 0.520197 5.88997 0.500649 6.16994 0.500645H6.28029ZM15.1904 3.6608C14.7804 3.5198 14.3297 3.7408 14.1797 4.1608C14.0398 4.58071 14.2599 5.04103 14.6797 5.1901C15.3206 5.43006 15.7499 6.06058 15.75 6.75943V6.79068C15.731 7.01968 15.8004 7.2408 15.9404 7.4108C16.0804 7.58062 16.29 7.6798 16.5098 7.70084C16.9197 7.68984 17.2697 7.36095 17.2998 6.9401V6.82096C17.3298 5.42009 16.4812 4.1509 15.1904 3.6608Z" fill="url(#paint0_linear_136_223)"/>
<defs>
<linearGradient id="paint0_linear_136_223" x1="20.0003" y1="19.5006" x2="-3.60072" y2="12.2975" gradientUnits="userSpaceOnUse">
<stop stop-color="#FF4D67"/>
<stop offset="1" stop-color="#FF8A9B"/>
</linearGradient>
</defs>
</svg>
